<?xml version="1.0" encoding="UTF-8"?>
<svg width="123px" height="120px" viewBox="0 0 123 120" version="1.1" xmlns="http://www.w3.org/2000/svg" xmlns:xlink="http://www.w3.org/1999/xlink">
    <!-- Generator: Sketch 48.2 (47327) - http://www.bohemiancoding.com/sketch -->
    <title>why-organize-team-knowledge</title>
    <desc>Created with Sketch.</desc>
    <defs></defs>
    <g id="Desktop-HD" stroke="none" stroke-width="1" fill="none" fill-rule="evenodd" transform="translate(-325.000000, -1189.000000)" stroke-linejoin="round">
        <g id="why-organize-team-knowledge" transform="translate(327.000000, 1191.000000)" stroke-width="3">
            <g id="Group-56-Copy" stroke="#ECF0F1" stroke-linecap="round">
                <path d="M100,91.3043478 C100,96.1043478 96.1086957,100 91.3043478,100 L8.69565217,100 C3.89565217,100 0,96.1043478 0,91.3043478 L0,8.69565217 C0,3.89565217 3.89565217,0 8.69565217,0 L91.3043478,0 C96.1086957,0 100,3.89565217 100,8.69565217 L100,91.3043478 L100,91.3043478 Z" id="Stroke-643" fill="#FFFFFF"></path>
                <path d="M0,21.9512195 L100,21.9512195" id="Stroke-644"></path>
                <polygon id="Stroke-645" points="88.6178862 56.9105691 57.7235772 56.9105691 57.7235772 34.9593496 88.6178862 34.9593496"></polygon>
                <polygon id="Stroke-645" points="44.7154472 56.9105691 13.8211382 56.9105691 13.8211382 34.9593496 44.7154472 34.9593496"></polygon>
                <polygon id="Stroke-646" points="88.6178862 87.804878 57.7235772 87.804878 57.7235772 65.8536585 88.6178862 65.8536585"></polygon>
                <polygon id="Stroke-646" points="44.7154472 87.804878 13.8211382 87.804878 13.8211382 65.8536585 44.7154472 65.8536585"></polygon>
                <path d="M17.8861789,10.5691057 C17.8861789,11.9154472 16.7934959,13.0081301 15.4471545,13.0081301 C14.100813,13.0081301 13.0081301,11.9154472 13.0081301,10.5691057 C13.0081301,9.22276423 14.100813,8.1300813 15.4471545,8.1300813 C16.7934959,8.1300813 17.8861789,9.22276423 17.8861789,10.5691057 L17.8861789,10.5691057 Z" id="Stroke-652"></path>
                <path d="M30.8943089,10.5691057 C30.8943089,11.9154472 29.801626,13.0081301 28.4552846,13.0081301 C27.1089431,13.0081301 26.0162602,11.9154472 26.0162602,10.5691057 C26.0162602,9.22276423 27.1089431,8.1300813 28.4552846,8.1300813 C29.801626,8.1300813 30.8943089,9.22276423 30.8943089,10.5691057 L30.8943089,10.5691057 Z" id="Stroke-653"></path>
                <path d="M44.7154472,10.5691057 C44.7154472,11.9154472 43.6227642,13.0081301 42.2764228,13.0081301 C40.9300813,13.0081301 39.8373984,11.9154472 39.8373984,10.5691057 C39.8373984,9.22276423 40.9300813,8.1300813 42.2764228,8.1300813 C43.6227642,8.1300813 44.7154472,9.22276423 44.7154472,10.5691057 L44.7154472,10.5691057 Z" id="Stroke-654"></path>
            </g>
            <g id="Group-17" transform="translate(82.000000, 79.000000) scale(-1, 1) translate(-82.000000, -79.000000) translate(45.000000, 42.000000)" stroke="#0586F2">
                <path d="M74,25.5 C74,39.582375 62.582375,51 48.5,51 C34.417625,51 23,39.582375 23,25.5 C23,11.4144375 34.417625,0 48.5,0 C62.582375,0 74,11.4144375 74,25.5 L74,25.5 Z" id="Stroke-337" fill="#FFFFFF" transform="translate(48.500000, 25.500000) scale(-1, 1) translate(-48.500000, -25.500000) "></path>
                <path d="M0,44 L30,74" id="Stroke-338" stroke-linecap="round" transform="translate(15.000000, 59.000000) scale(-1, 1) translate(-15.000000, -59.000000) "></path>
            </g>
        </g>
    </g>
</svg>