<?xml version="1.0" encoding="UTF-8"?>
<svg width="121px" height="122px" viewBox="0 0 121 122" version="1.1" xmlns="http://www.w3.org/2000/svg" xmlns:xlink="http://www.w3.org/1999/xlink">
    <!-- Generator: Sketch 48.2 (47327) - http://www.bohemiancoding.com/sketch -->
    <title>why-refine-team-knowledge-sharing-flow</title>
    <desc>Created with Sketch.</desc>
    <defs></defs>
    <g id="Desktop-HD" stroke="none" stroke-width="1" fill="none" fill-rule="evenodd" transform="translate(-1002.000000, -1190.000000)" stroke-linejoin="round">
        <g id="Broken-team-knowledge-sharing-flow" transform="translate(878.000000, 1191.000000)">
            <g id="why-refine-team-knowledge-sharing-flow" transform="translate(125.000000, 0.000000)">
                <g id="Group-36-Copy" stroke="#EEF1F2" stroke-width="2">
                    <path d="M99.1452991,90.5982906 C99.1452991,95.3162393 95.3205128,99.1452991 90.5982906,99.1452991 L9.4017094,99.1452991 C4.68376068,99.1452991 0.854700855,95.3162393 0.854700855,90.5982906 L0.854700855,9.4017094 C0.854700855,4.68376068 4.68376068,0.854700855 9.4017094,0.854700855 L90.5982906,0.854700855 C95.3205128,0.854700855 99.1452991,4.68376068 99.1452991,9.4017094 L99.1452991,90.5982906 L99.1452991,90.5982906 Z" id="Stroke-611" fill="#FFFFFF" stroke-linecap="round"></path>
                    <path d="M0.854700855,21.7948718 L99.1452991,21.7948718" id="Stroke-612" stroke-linecap="round"></path>
                    <path d="M17.9487179,11.5384615 C17.9487179,12.7179487 16.991453,13.6752137 15.8119658,13.6752137 C14.6324786,13.6752137 13.6752137,12.7179487 13.6752137,11.5384615 C13.6752137,10.3589744 14.6324786,9.4017094 15.8119658,9.4017094 C16.991453,9.4017094 17.9487179,10.3589744 17.9487179,11.5384615 L17.9487179,11.5384615 Z" id="Stroke-613" stroke-linecap="round"></path>
                    <path d="M30.7692308,11.5384615 C30.7692308,12.7179487 29.8119658,13.6752137 28.6324786,13.6752137 C27.4529915,13.6752137 26.4957265,12.7179487 26.4957265,11.5384615 C26.4957265,10.3589744 27.4529915,9.4017094 28.6324786,9.4017094 C29.8119658,9.4017094 30.7692308,10.3589744 30.7692308,11.5384615 L30.7692308,11.5384615 Z" id="Stroke-614" stroke-linecap="round"></path>
                    <path d="M43.5897436,11.5384615 C43.5897436,12.7179487 42.6324786,13.6752137 41.4529915,13.6752137 C40.2735043,13.6752137 39.3162393,12.7179487 39.3162393,11.5384615 C39.3162393,10.3589744 40.2735043,9.4017094 41.4529915,9.4017094 C42.6324786,9.4017094 43.5897436,10.3589744 43.5897436,11.5384615 L43.5897436,11.5384615 Z" id="Stroke-615" stroke-linecap="round"></path>
                    <path d="M38.4615385,22.2222222 L38.4615385,99.1452991" id="Stroke-616"></path>
                    <path d="M13.808547,34.6153846 L26.5606838,34.6153846" id="Stroke-617" stroke-linecap="round"></path>
                    <path d="M13.808547,43.5897436 L26.5606838,43.5897436" id="Stroke-618" stroke-linecap="round"></path>
                    <path d="M13.808547,51.2820513 L26.5606838,51.2820513" id="Stroke-619" stroke-linecap="round"></path>
                    <path d="M13.808547,60.2564103 L26.5606838,60.2564103" id="Stroke-620" stroke-linecap="round"></path>
                    <path d="M13.808547,69.2307692 L26.5606838,69.2307692" id="Stroke-621" stroke-linecap="round"></path>
                    <path d="M13.808547,76.9230769 L26.5606838,76.9230769" id="Stroke-622" stroke-linecap="round"></path>
                    <path d="M13.808547,85.8974359 L26.5606838,85.8974359" id="Stroke-623" stroke-linecap="round"></path>
                    <polygon id="Stroke-624" stroke-linecap="round" points="86.3247863 56.4102564 52.1367521 56.4102564 52.1367521 35.042735 86.3247863 35.042735"></polygon>
                    <polygon id="Stroke-625" stroke-linecap="round" points="64.957265 77.7777778 52.1367521 77.7777778 52.1367521 69.2307692 64.957265 69.2307692"></polygon>
                    <polygon id="Stroke-626" stroke-linecap="round" points="86.3247863 77.7777778 73.5042735 77.7777778 73.5042735 69.2307692 86.3247863 69.2307692"></polygon>
                </g>
                <g id="Group-55" transform="translate(50.000000, 40.000000)" stroke="#0382EC" stroke-linecap="round" stroke-width="3">
                    <g id="Group-29" transform="translate(38.000000, 41.500000) rotate(-180.000000) translate(-38.000000, -41.500000) ">
                        <polyline id="Stroke-252" stroke-opacity="0.3" transform="translate(31.900468, 70.589831) rotate(-75.000000) translate(-31.900468, -70.589831) " points="21.1438546 63.094247 31.1500904 78.0854141 42.6570821 64.2282452"></polyline>
                        <polyline id="Stroke-253" transform="translate(47.831430, 12.888899) rotate(-75.000000) translate(-47.831430, -12.888899) " points="58.5880435 20.3844825 48.585398 5.39331538 37.0748159 19.2504843"></polyline>
                        <path d="M77.2241474,22.0031037 C80.2184784,37.9224158 69.0633386,53.5239196 53.8547218,57.1353788 C43.2489017,59.6597888 32.614359,56.2722401 25.3798541,49.1034935" id="Stroke-254" transform="translate(51.545972, 39.984480) rotate(-75.000000) translate(-51.545972, -39.984480) "></path>
                        <path d="M0.39057753,62.5049581 C-4.32351922,44.8702028 7.46351782,27.5677018 23.8641225,23.6709373 C35.1951883,20.9731773 46.5406153,25.0144001 53.749988,33.208801" id="Stroke-255" stroke-opacity="0.3" transform="translate(26.546439, 42.671943) rotate(-75.000000) translate(-26.546439, -42.671943) "></path>
                    </g>
                </g>
            </g>
        </g>
    </g>
</svg>